name ./resultDataOpenSim/trcMotMarkerGrf/sub09/grf-03-06.mot
datacolumns 19
datarows 22
range 1.47600000 1.56000000
endheader

                time	     ground_force_vx	     ground_force_vy	     ground_force_vz	     ground_force_px	     ground_force_py	     ground_force_pz	   l_ground_force_vx	   l_ground_force_vy	   l_ground_force_vz	   l_ground_force_px	   l_ground_force_py	   l_ground_force_pz	     ground_torque_x	     ground_torque_y	     ground_torque_z	   l_ground_torque_x	   l_ground_torque_y	   l_ground_torque_z	
          1.47600000	        -37.10358059	        430.80895107	         -6.04062193	          0.95630297	          0.00000000	          0.13828255	          0.00000000	          0.00000000	          0.00000000	          0.00000000	          0.00000000	          0.00000000	          0.00000000	          0.68003926	          0.00000000	          0.00000000	          0.00000000	          0.00000000	
          1.48000000	        -29.90661227	        427.78849134	         -6.23576579	          0.95639954	          0.00000000	          0.13811403	          0.00000000	          0.00000000	          0.00000000	          0.00000000	          0.00000000	          0.00000000	          0.00000000	          0.45673117	          0.00000000	          0.00000000	          0.00000000	          0.00000000	
          1.48400000	        -23.20262215	        425.20681661	         -5.85180502	          0.95642728	          0.00000000	          0.13796691	          0.00000000	          0.00000000	          0.00000000	          0.00000000	          0.00000000	          0.00000000	          0.00000000	          0.25376254	          0.00000000	          0.00000000	          0.00000000	          0.00000000	
          1.48800000	        -18.39866881	        423.10736474	         -4.81314961	          0.95665204	          0.00000000	          0.13780117	          0.00000000	          0.00000000	          0.00000000	          0.00000000	          0.00000000	          0.00000000	          0.00000000	          0.15281433	          0.00000000	          0.00000000	          0.00000000	          0.00000000	
          1.49200000	        -16.36848951	        421.54884645	         -3.18546980	          0.95726181	          0.00000000	          0.13758317	          0.00000000	          0.00000000	          0.00000000	          0.00000000	          0.00000000	          0.00000000	          0.00000000	          0.20696109	          0.00000000	          0.00000000	          0.00000000	          0.00000000	
          1.49600000	        -17.22654212	        420.53250344	         -1.14867369	          0.95827471	          0.00000000	          0.13729460	          0.00000000	          0.00000000	          0.00000000	          0.00000000	          0.00000000	          0.00000000	          0.00000000	          0.42686454	          0.00000000	          0.00000000	          0.00000000	          0.00000000	
          1.50000000	        -20.31969272	        419.96295255	          1.03756976	          0.95959798	          0.00000000	          0.13696105	          0.00000000	          0.00000000	          0.00000000	          0.00000000	          0.00000000	          0.00000000	          0.00000000	          0.77771112	          0.00000000	          0.00000000	          0.00000000	          0.00000000	
          1.50400000	        -24.41523385	        419.68867496	          3.06870633	          0.96104381	          0.00000000	          0.13664704	          0.00000000	          0.00000000	          0.00000000	          0.00000000	          0.00000000	          0.00000000	          0.00000000	          1.18849059	          0.00000000	          0.00000000	          0.00000000	          0.00000000	
          1.50800000	        -28.02983898	        419.59360439	          4.64102684	          0.96235004	          0.00000000	          0.13641201	          0.00000000	          0.00000000	          0.00000000	          0.00000000	          0.00000000	          0.00000000	          0.00000000	          1.57168121	          0.00000000	          0.00000000	          0.00000000	          0.00000000	
          1.51200000	        -29.82671527	        419.65269146	          5.50854343	          0.96330704	          0.00000000	          0.13628671	          0.00000000	          0.00000000	          0.00000000	          0.00000000	          0.00000000	          0.00000000	          0.00000000	          1.84774058	          0.00000000	          0.00000000	          0.00000000	          0.00000000	
          1.51600000	        -28.97081130	        419.90671923	          5.53032824	          0.96378895	          0.00000000	          0.13627742	          0.00000000	          0.00000000	          0.00000000	          0.00000000	          0.00000000	          0.00000000	          0.00000000	          1.96684921	          0.00000000	          0.00000000	          0.00000000	          0.00000000	
          1.52000000	        -25.32890505	        420.40228041	          4.69192871	          0.96379262	          0.00000000	          0.13640077	          0.00000000	          0.00000000	          0.00000000	          0.00000000	          0.00000000	          0.00000000	          0.00000000	          1.92135598	          0.00000000	          0.00000000	          0.00000000	          0.00000000	
          1.52400000	        -19.46809002	        421.16956243	          3.10295755	          0.96341697	          0.00000000	          0.13666640	          0.00000000	          0.00000000	          0.00000000	          0.00000000	          0.00000000	          0.00000000	          0.00000000	          1.74579202	          0.00000000	          0.00000000	          0.00000000	          0.00000000	
          1.52800000	        -12.47752215	        422.24288028	          0.97018860	          0.96282296	          0.00000000	          0.13705363	          0.00000000	          0.00000000	          0.00000000	          0.00000000	          0.00000000	          0.00000000	          0.00000000	          1.50546165	          0.00000000	          0.00000000	          0.00000000	          0.00000000	
          1.53200000	         -5.66143861	        423.68410494	         -1.44762526	          0.96222892	          0.00000000	          0.13751283	          0.00000000	          0.00000000	          0.00000000	          0.00000000	          0.00000000	          0.00000000	          0.00000000	          1.27788308	          0.00000000	          0.00000000	          0.00000000	          0.00000000	
          1.53600000	         -0.17640011	        425.58627499	         -3.88135515	          0.96184229	          0.00000000	          0.13797764	          0.00000000	          0.00000000	          0.00000000	          0.00000000	          0.00000000	          0.00000000	          0.00000000	          1.13279781	          0.00000000	          0.00000000	          0.00000000	          0.00000000	
          1.54000000	          3.27496341	        428.05689193	         -6.08184832	          0.96177883	          0.00000000	          0.13838669	          0.00000000	          0.00000000	          0.00000000	          0.00000000	          0.00000000	          0.00000000	          0.00000000	          1.11599050	          0.00000000	          0.00000000	          0.00000000	          0.00000000	
          1.54400000	          4.59959728	        431.19084739	         -7.84466607	          0.96203979	          0.00000000	          0.13869439	          0.00000000	          0.00000000	          0.00000000	          0.00000000	          0.00000000	          0.00000000	          0.00000000	          1.24034392	          0.00000000	          0.00000000	          0.00000000	          0.00000000	
          1.54800000	          4.29615137	        435.03670044	         -9.02972105	          0.96253983	          0.00000000	          0.13887897	          0.00000000	          0.00000000	          0.00000000	          0.00000000	          0.00000000	          0.00000000	          0.00000000	          1.48531947	          0.00000000	          0.00000000	          0.00000000	          0.00000000	
          1.55200000	          3.29549796	        439.56826523	         -9.57838580	          0.96313784	          0.00000000	          0.13894279	          0.00000000	          0.00000000	          0.00000000	          0.00000000	          0.00000000	          0.00000000	          0.00000000	          1.80416917	          0.00000000	          0.00000000	          0.00000000	          0.00000000	
          1.55600000	          2.70386075	        444.68865911	         -9.52905793	          0.96367027	          0.00000000	          0.13890501	          0.00000000	          0.00000000	          0.00000000	          0.00000000	          0.00000000	          0.00000000	          0.00000000	          2.13686917	          0.00000000	          0.00000000	          0.00000000	          0.00000000	
          1.56000000	          3.49721909	        450.26990467	         -9.01897267	          0.96398992	          0.00000000	          0.13879571	          0.00000000	          0.00000000	          0.00000000	          0.00000000	          0.00000000	          0.00000000	          0.00000000	          2.42581861	          0.00000000	          0.00000000	          0.00000000	          0.00000000	
